<svg xmlns="http://www.w3.org/2000/svg" width="830" height="250" viewBox="0 0 830 250" font-family="Helvetica,Arial,sans-serif">
<defs><marker id="ar" markerWidth="9" markerHeight="9" refX="8" refY="4.5" orient="auto"><path d="M0,0 L9,4.5 L0,9 z" fill="#444"/></marker></defs>
<rect width="830" height="250" fill="#fbfbf9"/>
<path d="M140,85 L200,85" stroke="#444" stroke-width="2" fill="none" marker-end="url(#ar)"/>
<path d="M350,85 L420,85" stroke="#444" stroke-width="2" fill="none" marker-end="url(#ar)"/>
<text x="385.0" y="79.0" font-size="12" fill="#444" text-anchor="middle">load</text>
<path d="M590,85 L650,85" stroke="#444" stroke-width="2" fill="none" marker-end="url(#ar)"/>
<path d="M720,110 L720,170" stroke="#444" stroke-width="2" fill="none" marker-end="url(#ar)"/>
<rect x="20" y="60" width="120" height="50" rx="8" fill="#fff" stroke="#3a6ea5" stroke-width="3"/>
<text x="80.0" y="90.0" font-size="13" text-anchor="middle" fill="#1d1f1e">Notes + ask</text>
<rect x="200" y="60" width="150" height="50" rx="8" fill="#fff" stroke="#e0642f" stroke-width="3"/>
<text x="275.0" y="82.0" font-size="13" text-anchor="middle" fill="#1d1f1e">AI sees skill</text>
<text x="275.0" y="98.0" font-size="13" text-anchor="middle" fill="#1d1f1e">description</text>
<rect x="420" y="60" width="170" height="50" rx="8" fill="#fff" stroke="#5e9e3e" stroke-width="3"/>
<text x="505.0" y="82.0" font-size="13" text-anchor="middle" fill="#1d1f1e">SKILL.md loads</text>
<text x="505.0" y="98.0" font-size="13" text-anchor="middle" fill="#1d1f1e">(method, rubric)</text>
<rect x="650" y="60" width="140" height="50" rx="8" fill="#fff" stroke="#e0642f" stroke-width="3"/>
<text x="720.0" y="82.0" font-size="13" text-anchor="middle" fill="#1d1f1e">AI writes with</text>
<text x="720.0" y="98.0" font-size="13" text-anchor="middle" fill="#1d1f1e">the method</text>
<rect x="650" y="170" width="140" height="50" rx="8" fill="#fff" stroke="#5e9e3e" stroke-width="3"/>
<text x="720.0" y="200.0" font-size="13" text-anchor="middle" fill="#1d1f1e">statement file</text>
</svg>