<svg xmlns="http://www.w3.org/2000/svg" viewBox="0 0 760 230" width="760" height="230" font-family="Helvetica,Arial,sans-serif">
<defs><marker id="ar" markerWidth="9" markerHeight="9" refX="8" refY="4.5" orient="auto"><path d="M0,0 L9,4.5 L0,9 z" fill="#444"/></marker></defs>
<rect width="760" height="230" fill="white"/>
<text x="14" y="24" font-size="15" font-weight="bold" fill="#222">Step 6. A check the model cannot bypass (hook)</text>
<rect x="30" y="100" width="150" height="60" rx="8" fill="#e0642f" fill-opacity="0.13" stroke="#e0642f" stroke-width="2"/>
<text x="105.0" y="126.5" font-size="12.5" text-anchor="middle" fill="#222">AI wants the target</text>
<text x="105.0" y="141.5" font-size="12.5" text-anchor="middle" fill="#222">(very ambitious)</text>
<rect x="250" y="100" width="170" height="60" rx="8" fill="#5e9e3e" fill-opacity="0.13" stroke="#5e9e3e" stroke-width="2"/>
<text x="335.0" y="126.5" font-size="12.5" text-anchor="middle" fill="#222">Hook: reads every</text>
<text x="335.0" y="141.5" font-size="12.5" text-anchor="middle" fill="#222">Edit, Write, Bash</text>
<rect x="500" y="60" width="200" height="50" rx="8" fill="#5e9e3e" fill-opacity="0.13" stroke="#5e9e3e" stroke-width="2"/>
<text x="600.0" y="89.0" font-size="12.5" text-anchor="middle" fill="#222">Allowed: run scorer</text>
<rect x="500" y="140" width="200" height="50" rx="8" fill="#b23a3a" fill-opacity="0.13" stroke="#b23a3a" stroke-width="2"/>
<text x="600.0" y="161.5" font-size="12.5" text-anchor="middle" fill="#222">Blocked: change to scorer</text>
<text x="600.0" y="176.5" font-size="12.5" text-anchor="middle" fill="#222">limits or counter</text>
<line x1="180" y1="130.0" x2="250" y2="130.0" stroke="#444" stroke-width="1.8" marker-end="url(#ar)"/>
<text x="215.0" y="124.0" font-size="11.5" text-anchor="middle" fill="#444">tool call</text>
<line x1="420" y1="130.0" x2="500" y2="85.0" stroke="#444" stroke-width="1.8" marker-end="url(#ar)"/>
<text x="460.0" y="101.5" font-size="11.5" text-anchor="middle" fill="#444">ok</text>
<line x1="420" y1="130.0" x2="500" y2="165.0" stroke="#444" stroke-width="1.8" marker-end="url(#ar)"/>
<text x="460.0" y="141.5" font-size="11.5" text-anchor="middle" fill="#444">deny</text>
</svg>